<?xml version="1.0" encoding="UTF-8" standalone="no"?>
<!-- Created with Inkscape (http://www.inkscape.org/) -->

<svg
   xmlns:dc="http://purl.org/dc/elements/1.1/"
   xmlns:cc="http://creativecommons.org/ns#"
   xmlns:rdf="http://www.w3.org/1999/02/22-rdf-syntax-ns#"
   xmlns:svg="http://www.w3.org/2000/svg"
   xmlns="http://www.w3.org/2000/svg"
   xmlns:sodipodi="http://sodipodi.sourceforge.net/DTD/sodipodi-0.dtd"
   xmlns:inkscape="http://www.inkscape.org/namespaces/inkscape"
   width="57.527851mm"
   height="69.317047mm"
   viewBox="0 0 203.83885 245.61158"
   id="svg4237"
   version="1.1"
   inkscape:version="0.92.1 r"
   sodipodi:docname="ktk-logo_notext_grey.svg">
  <defs
     id="defs4239" />
  <sodipodi:namedview
     id="base"
     pagecolor="#ffffff"
     bordercolor="#666666"
     borderopacity="1.0"
     inkscape:pageopacity="0.0"
     inkscape:pageshadow="2"
     inkscape:zoom="0.98994949"
     inkscape:cx="-69.53753"
     inkscape:cy="-57.256128"
     inkscape:document-units="px"
     inkscape:current-layer="layer1"
     showgrid="false"
     inkscape:window-width="1912"
     inkscape:window-height="1056"
     inkscape:window-x="0"
     inkscape:window-y="16"
     inkscape:window-maximized="0"
     fit-margin-top="0"
     fit-margin-left="0"
     fit-margin-right="0"
     fit-margin-bottom="0" />
  <metadata
     id="metadata4242">
    <rdf:RDF>
      <cc:Work
         rdf:about="">
        <dc:format>image/svg+xml</dc:format>
        <dc:type
           rdf:resource="http://purl.org/dc/dcmitype/StillImage" />
        <dc:title />
      </cc:Work>
    </rdf:RDF>
  </metadata>
  <g
     inkscape:label="Layer 1"
     inkscape:groupmode="layer"
     id="layer1"
     transform="translate(-260.90022,-372.50552)">
    <path
       style="fill:#404040;fill-opacity:1"
       d="m 360.06599,617.78093 c -1.7828,-0.65982 -3.2526,-1.99038 -4.1871,-3.79045 -0.7548,-1.45381 -0.8348,-1.87243 -0.7221,-3.77825 0.1494,-2.52592 1.1479,-4.53039 2.7851,-5.59069 l 1.0284,-0.66602 0,-3.91786 0,-3.91786 3.9,-0.0109 3.9,-0.0109 0,4.01288 0,4.01288 1.0296,0.90402 c 3.8972,3.42174 2.8704,10.17123 -1.8973,12.47214 -1.4247,0.68754 -4.3637,0.82881 -5.8441,0.28092 z m -3.6383,-23.72555 c -5.6496,-0.90507 -11.3011,-3.12366 -16.1067,-6.3229 -7.517,-5.00427 -13.1166,-12.31303 -15.9678,-20.84162 -1.5246,-4.56059 -2.0255,-7.78503 -2.0251,-13.03534 6e-4,-8.47596 2.1561,-15.63618 6.8313,-22.69428 2.7098,-4.09087 9.5353,-10.4006 13.5433,-12.5199 l 0.675,-0.35693 0,3.27069 0,3.27069 -1.2118,0.80193 c -1.9191,1.27 -5.579,4.89206 -7.4391,7.36224 -7.0616,9.37755 -8.9051,21.95085 -4.8482,33.06684 4.2104,11.5369 14.7054,20.27475 26.9991,22.47876 3.2112,0.57572 9.487,0.50258 12.5388,-0.14614 10.3587,-2.20194 19.1521,-8.61343 23.9381,-17.45393 0.6193,-1.14399 1.1676,-2.13341 1.2183,-2.19873 0.051,-0.0653 0.8713,0.22901 1.8235,0.65407 0.9522,0.42507 2.1025,0.8644 2.5563,0.97629 0.4537,0.1119 0.825,0.29573 0.825,0.40851 0,0.47123 -3.2016,5.74055 -4.6899,7.71898 -0.8851,1.1765 -2.8792,3.35323 -4.4315,4.83719 -5.5892,5.34333 -11.8877,8.67335 -19.5286,10.32488 -3.6386,0.78645 -11.0286,0.98688 -14.7,0.3987 z m 3.375,-6.94496 -0.825,-0.14475 0,-21.65776 0,-21.65775 -1.9395,-0.69557 c -4.3212,-1.54975 -7.8618,-4.66885 -9.7611,-8.59907 -2.245,-4.64566 -2.0994,0.18132 -2.0994,-69.62485 l 0,-62.60015 0.975,0.18867 c 0.5362,0.10376 2.5275,0.96438 4.425,1.9125 l 3.45,1.72383 0.15,61.05001 0.15,61.04999 0.7749,1.65183 c 1.5797,3.36744 4.0513,4.93625 7.7751,4.93502 3.4509,-10e-4 5.9085,-1.51881 7.4096,-4.57562 l 0.8404,-1.71123 0.15,-61.18129 0.15,-61.18129 1.65,-0.99409 c 1.5254,-0.91903 4.9331,-2.44922 6.525,-2.92992 l 0.675,-0.20384 0,63.24522 c -0.01,70.08579 0.1432,64.92253 -1.9899,69.35732 -1.8347,3.81462 -6.0168,7.32956 -10.3807,8.72475 l -1.125,0.35967 0,21.55903 c 0,14.57312 -0.1009,21.62139 -0.3114,21.75146 -0.3983,0.24616 -5.5757,0.43876 -6.6636,0.24788 z m -52.875,-16.7229 c -16.7855,-2.78271 -29.7658,-15.22917 -33.3539,-31.982 -0.7623,-3.55903 -0.7721,-12.60366 -0.017,-16.09779 1.772,-8.20526 5.3814,-14.88879 11.159,-20.66283 5.6959,-5.69246 12.5102,-9.3751 20.5624,-11.11251 3.5071,-0.75671 10.0058,-0.89519 14.0511,-0.2994 3.1645,0.46606 8.6069,2.00743 10.3937,2.94363 l 0.7746,0.40584 -1.1579,1.78653 c -1.8077,2.78892 -1.6864,2.74871 -5.0821,1.68486 -4.5047,-1.41134 -6.1755,-1.66877 -10.8794,-1.6763 -3.1213,-0.005 -5.0703,0.14888 -6.9,0.54481 -11.0235,2.3853 -19.9299,9.38087 -24.7425,19.43398 -10.0788,21.05385 3.0776,45.82746 26.341,49.60051 3.5282,0.57222 6.6794,0.56673 10.6208,-0.0185 1.7305,-0.25695 3.1777,-0.4257 3.2161,-0.375 0.038,0.0507 0.4131,1.20725 0.8327,2.57011 l 0.7631,2.47792 -0.6406,0.14465 c -0.3523,0.0796 -1.2481,0.28864 -1.9906,0.46463 -2.1758,0.51571 -11.195,0.6236 -13.95,0.16688 z m 98.85,-0.004 c -9.1687,-1.6273 -16.635,-5.59326 -22.8756,-12.15104 -3.875,-4.07194 -6.884,-8.91151 -8.7214,-14.02731 l -0.7724,-2.15035 1.6133,-1.2446 c 0.8872,-0.68453 1.8285,-1.57312 2.0915,-1.97465 0.2631,-0.40153 0.5902,-0.73005 0.7269,-0.73005 0.1368,0 0.479,0.8511 0.7606,1.89132 2.6581,9.82004 10.8022,18.87382 20.4539,22.73852 4.7809,1.91435 7.5867,2.45614 12.8732,2.48572 5.3054,0.0297 8.0324,-0.40163 12.2542,-1.93817 5.2487,-1.91027 9.5184,-4.77045 13.6125,-9.11865 9.4355,-10.02122 12.1134,-24.1446 6.9995,-36.91583 -0.5039,-1.25854 -0.9162,-2.39255 -0.9162,-2.52002 0,-0.12748 0.544,-0.47709 1.2089,-0.77692 0.6649,-0.29984 1.6361,-0.86034 2.1583,-1.24557 0.5221,-0.38522 1.0446,-0.70041 1.161,-0.70041 0.37,0 2.3843,5.14679 3.1174,7.9653 1.9233,7.39435 1.6944,15.73814 -0.627,22.85282 -4.4472,13.63006 -15.655,23.82594 -29.8186,27.12651 -3.3249,0.7748 -11.993,1.02033 -15.3,0.43338 z m -74.6555,-5.67769 c -0.3291,-0.87984 -0.6781,-2.06109 -0.7755,-2.625 -0.1748,-1.01233 -0.1447,-1.0459 2.3794,-2.65362 2.9156,-1.85712 6.4747,-5.2146 8.7742,-8.27715 2.0393,-2.71595 4.3472,-7.2533 5.3324,-10.48324 0.4297,-1.40871 0.8069,-2.5607 0.8381,-2.55998 0.031,6e-4 1.0464,0.94038 2.2558,2.08814 2.4837,2.35702 2.4227,1.89777 0.7835,5.89853 -2.6365,6.43491 -7.5165,12.67354 -13.1736,16.84122 -1.9545,1.43993 -5.1356,3.37079 -5.5534,3.37079 -0.1443,0 -0.5317,-0.71986 -0.8609,-1.59969 z m 68.4113,-3.33511 c -1.0418,-0.38695 -1.9621,-0.77141 -2.045,-0.85435 -0.083,-0.0829 -0.014,-1.6168 0.1534,-3.40856 0.8071,-8.64404 -1.6517,-17.20497 -6.9754,-24.2871 -1.5129,-2.01262 -5.7578,-6.17256 -7.4645,-7.31519 l -1.1202,-0.75 0,-3.2535 0,-3.25351 1.425,0.81826 c 3.9979,2.29569 9.0567,6.83906 11.775,10.57536 5.9708,8.20706 8.7977,18.2656 7.8514,27.93656 -0.1923,1.96524 -0.432,3.78774 -0.5327,4.05 -0.242,0.63068 -0.796,0.58402 -3.0629,-0.25797 z m -43.7921,-44.63624 0.086,-2.77896 1.35,-0.20276 c 0.7425,-0.11152 3.24,-0.20276 5.5499,-0.20276 2.31,0 4.8075,0.0912 5.55,0.20276 l 1.35,0.20276 0.086,2.77896 0.086,2.77894 -1.7363,-0.22894 c -0.9549,-0.12593 -3.3563,-0.22896 -5.3363,-0.22896 -1.98,0 -4.3813,0.10303 -5.3363,0.22896 l -1.7363,0.22894 0.086,-2.77894 z m -58.8637,0.83155 c -0.2475,-0.0585 -1.4625,-0.26927 -2.7,-0.46828 -2.4109,-0.38772 -6.1643,-1.4765 -8.4657,-2.45573 l -1.4157,-0.60236 0.4795,-0.94207 c 0.2637,-0.51814 0.9331,-1.56571 1.4875,-2.32795 l 1.008,-1.38589 2.9282,0.99991 c 16.793,5.7345 35.0746,-2.04806 42.8206,-18.22895 2.126,-4.44087 3.4576,-9.91562 3.4576,-14.21518 0,-1.86414 -0.05,-1.83494 3.4132,-2.01188 l 2.0633,-0.10543 -0.1545,3.61665 c -0.4303,10.0774 -4.4605,19.14171 -11.7538,26.43494 -5.654,5.65405 -12.402,9.34401 -20.2682,11.08311 -2.0484,0.45286 -11.6449,0.90599 -12.9,0.60911 z m 122.25,-0.0671 c -9.4673,-1.22709 -19.1003,-6.25578 -25.0737,-13.08908 -1.4828,-1.69638 -1.4656,-1.73424 1.5206,-3.32971 l 1.9329,-1.03272 2.4293,2.33228 c 6.3622,6.10798 13.7081,9.31436 22.4909,9.81698 9.8259,0.56232 19.2291,-3.07715 26.4299,-10.22962 6.8177,-6.77195 10.3201,-15.18518 10.3201,-24.79023 0,-15.37306 -10.113,-29.02786 -24.75,-33.41828 -1.485,-0.44543 -2.8486,-0.85261 -3.0302,-0.90484 -0.2373,-0.0683 -0.2217,-0.82811 0.055,-2.70189 0.212,-1.4338 0.4281,-2.64822 0.4802,-2.69871 0.052,-0.0505 1.311,0.224 2.7977,0.60997 14.1859,3.6829 25.5402,15.35094 28.8941,29.69241 3.211,13.7307 -0.6017,27.62794 -10.3304,37.65381 -6.2283,6.4186 -13.9083,10.41905 -22.7578,11.8544 -2.4595,0.39891 -9.0912,0.53565 -11.4089,0.23523 z m -77.3454,-7.60617 c -1.2519,-1.74292 -5.4903,-6.25623 -6.4215,-6.83808 -0.1977,-0.12348 0.2554,-1.07827 1.1919,-2.51178 1.2059,-1.84591 1.6081,-2.25966 1.9929,-2.05031 0.2651,0.14425 1.4687,1.18491 2.6746,2.31258 l 2.1925,2.05031 -0.092,4.52478 -0.092,4.52476 -1.4454,-2.01226 z m 40.2954,-2.35611 0,-4.46883 2.4261,-2.2823 c 7.3147,-6.8812 16.0379,-10.49797 26.2239,-10.87288 10.7942,-0.3973 19.7985,2.73494 28.2,9.8097 3.0968,2.60782 4.5566,4.38844 4.1397,5.04951 -0.1678,0.266 -1.1869,0.95438 -2.2646,1.52973 l -1.9596,1.0461 -2.4446,-2.33553 c -10.7067,-10.22911 -26.5423,-12.64664 -39.6209,-6.0487 -5.1278,2.58686 -9.8539,6.58911 -13.0095,11.01703 -0.7938,1.11375 -1.4989,2.025 -1.5669,2.025 -0.068,0 -0.1236,-2.01097 -0.1236,-4.46883 z m -107.9551,-0.23646 c -11.4213,-10.35238 -15.9342,-26.5534 -11.6004,-41.64466 1.0421,-3.62876 3.8808,-9.35607 6.1767,-12.46213 8.977,-12.14453 23.8354,-18.25729 38.9302,-16.01592 14.8281,2.20176 27.587,12.94655 32.2607,27.16803 0.4204,1.27948 0.6157,2.32725 0.4636,2.48845 -0.1444,0.15314 -1.3969,0.33797 -2.7832,0.41073 l -2.5206,0.1323 -0.5282,-1.61073 c -2.6325,-8.02688 -9.427,-15.80914 -17.2437,-19.75052 -5.4796,-2.76289 -9.7173,-3.74474 -16.05,-3.71865 -10.0273,0.0413 -18.1968,3.58585 -25.2054,10.93587 -6.493,6.80925 -9.6248,14.7617 -9.5592,24.27257 0.068,9.82416 3.5954,17.99555 10.8008,25.01951 l 2.4363,2.3749 -1.3863,2.18671 c -0.7624,1.20269 -1.5212,2.19246 -1.6862,2.19947 -0.165,0.007 -1.2923,-0.88665 -2.5051,-1.98593 z m 112.8122,-13.96967 c -2.3257,-5.62719 -3.1716,-9.92811 -3.1716,-16.12499 0,-11.02918 3.6687,-20.17207 11.2548,-28.04821 6.3499,-6.59272 14.1643,-10.66447 23.0597,-12.01542 1.5675,-0.23806 3.4237,-0.43363 4.125,-0.4346 1.4759,-0.002 1.4778,0.005 0.931,3.31544 -0.1892,1.14553 -0.4929,2.08358 -0.675,2.08456 -0.1821,9e-4 -1.6141,0.19519 -3.1823,0.43159 -7.2849,1.0982 -13.8874,4.30286 -19.1351,9.28766 -7.7251,7.33812 -11.7986,18.03846 -10.832,28.45398 0.3206,3.45499 1.3378,7.6343 2.4948,10.25043 0.4254,0.96207 0.7736,1.90863 0.7736,2.10346 0,0.28372 -4.1654,2.8711 -4.6221,2.8711 -0.067,0 -0.5265,-0.97875 -1.0208,-2.175 z m -57.7567,-19.27398 c -8.967,-1.46694 -16.514,-5.36018 -22.8018,-11.76275 -4.1777,-4.25394 -7.2673,-9.16938 -9.1689,-14.58717 -0.5114,-1.45689 -0.9297,-2.82992 -0.9297,-3.05116 0,-0.43916 0.688,-0.6184 3.4923,-0.90982 l 1.8424,-0.19145 0.5216,1.60067 c 0.2869,0.88037 1.1249,2.81567 1.8622,4.30067 7.0963,14.29305 22.7984,21.99161 38.464,18.85848 l 0.9175,-0.18348 0,2.85467 0,2.85468 -1.125,0.17275 c -2.8629,0.43962 -10.499,0.46526 -13.0746,0.0439 z m 61.7169,-0.18147 c 0.083,-0.39575 0.2313,-1.46321 0.3294,-2.37213 0.098,-0.90892 0.2762,-1.81095 0.3958,-2.00452 0.1197,-0.19356 1.4303,-0.51186 2.9125,-0.70732 7.6401,-1.00752 14.1624,-4.1949 19.9058,-9.72777 11.912,-11.47528 14.1453,-29.41665 5.4188,-43.53345 -2.0444,-3.30724 -7.3185,-8.73387 -10.4714,-10.77434 -12.1886,-7.88784 -27.5569,-7.67687 -39.2692,0.53907 l -1.9109,1.34049 -1.887,-1.98979 c -2.1795,-2.29829 -2.2149,-2.13187 0.9025,-4.23549 4.7126,-3.18006 10.6689,-5.54271 16.3114,-6.47019 3.7261,-0.61247 11.5417,-0.4607 14.895,0.28925 7.9784,1.78435 14.7687,5.49151 20.3978,11.13623 5.5967,5.61213 9.2567,12.42673 11.0202,20.51844 0.8438,3.87207 0.909,11.54422 0.1311,15.43418 -1.6342,8.17154 -4.9968,14.73835 -10.4881,20.48243 -7.1873,7.51806 -15.9935,11.73103 -26.321,12.59231 l -2.4238,0.20214 z m -35.2153,-7.99454 0,-3.225 1.0773,-0.7338 1.0773,-0.73379 0.4957,0.62809 c 0.2726,0.34545 1.0654,1.29712 1.7617,2.11483 l 1.2662,1.48674 -0.6662,0.60593 c -1.0096,0.91835 -4.2934,3.082 -4.6775,3.082 -0.2306,0 -0.338,-1.02866 -0.3366,-3.225 z m 11.548,1.73978 c -3.9621,-2.74075 -7.3243,-6.0102 -10.1528,-9.87279 l -1.3972,-1.908 0,-6.417 c 0,-3.52934 0.1094,-6.41699 0.2432,-6.41699 0.1338,0 0.4952,0.84375 0.8031,1.875 0.8274,2.77054 3.249,7.41642 5.2497,10.07164 1.7248,2.28891 5.5097,6.11913 7.0334,7.11747 0.7493,0.49096 0.7706,0.59501 0.7706,3.77039 0,1.79602 -0.1013,3.25817 -0.225,3.24922 -0.1238,-0.009 -1.17,-0.66997 -2.325,-1.46894 z m -1.2413,-10.60364 c -2.4087,-2.51789 -2.3564,-2.3623 -1.3133,-3.90781 1.3634,-2.02022 3.1741,-5.77478 3.9321,-8.15333 0.368,-1.155 0.7824,-2.22825 0.9208,-2.385 0.1384,-0.15675 0.2517,2.68557 0.2517,6.31626 l 0,6.60127 -0.8707,1.3729 c -0.4789,0.75509 -0.9959,1.45029 -1.1489,1.54488 -0.1531,0.0946 -0.9503,-0.53054 -1.7717,-1.38917 z m -71.1201,-24.87853 c 0.6304,-11.76266 5.7121,-22.03543 14.5009,-29.31387 7.603,-6.29638 16.0515,-9.31445 26.0826,-9.31754 8.3604,-0.003 15.5327,2.16715 22.6279,6.84522 3.1791,2.09614 7.7581,6.49604 9.9982,9.60729 l 1.7018,2.36353 0,6.69137 c 0,3.68026 -0.082,6.60934 -0.1823,6.50907 -0.1003,-0.10027 -0.5807,-1.37152 -1.0676,-2.825 -2.8855,-8.6134 -9.5088,-16.12048 -17.8001,-20.17524 -10.0073,-4.89388 -20.87,-4.85036 -30.9,0.12378 -11.4346,5.67065 -18.5812,16.51885 -19.5223,29.63378 l -0.2099,2.925 -1.7214,0 c -0.9468,0 -2.1651,0.0887 -2.7074,0.19718 l -0.9859,0.19718 z m 60.8114,-13.30357 0,-6.47094 0.9357,-1.36 0.9357,-1.36 1.9143,1.89728 c 1.0528,1.0435 1.9143,1.98088 1.9143,2.08306 0,0.10218 -0.6708,1.3019 -1.4907,2.66604 -1.4518,2.41553 -3.1537,6.36208 -3.5084,8.1358 -0.4558,2.27908 -0.7009,0.32377 -0.7009,-5.59124 z m -3.6,-23.56397 c -1.6863,-0.86413 -3.3609,-1.47744 -5.625,-2.06009 l -1.275,-0.32811 0,-10.18844 0,-10.18844 4.5,0 4.5,0 0,11.85 c 0,6.5175 -0.1013,11.82989 -0.225,11.80531 -0.1238,-0.0246 -0.9675,-0.42518 -1.875,-0.89023 z m 19.2,-10.91508 0,-11.85 4.5,0 4.5,0 0,10.28519 0,10.28519 -2.851,0.85652 c -1.5681,0.47108 -3.539,1.17524 -4.3798,1.56481 -0.8409,0.38956 -1.5829,0.70829 -1.649,0.70829 -0.066,0 -0.1202,-5.3325 -0.1202,-11.85 z"
       id="path3880"
       inkscape:connector-curvature="0"
       sodipodi:nodetypes="cccscccccccccccsscssccccsssssccscsccssccccssscsscccscccccsccccscsccccscssscccssssssccccsccssccccscsssscsccsssssccsssccsssccccsccccssscccccsscccccssccccssccscscssccsscccscssssscccssssccccscscccccscssscccsscssssssccsccssscscccscssscccssccsscsscssccsccccsscccssscsccsssscsssccccccccccsccsscsscccscssccsscccsssccccsscssscsccssccccsscssscccccsssscccccccss" />
  </g>
</svg>
